<!-- filepath: d:\Project\weather-app\src\assets\logo.svg -->
<svg xmlns="http://www.w3.org/2000/svg" viewBox="0 0 200 200" width="200" height="200">
  <!-- Gradient Definitions -->
  <defs>
    <linearGradient id="sunGradient" x1="0%" y1="0%" x2="100%" y2="100%">
      <stop offset="0%" stop-color="#FF9500" />
      <stop offset="100%" stop-color="#FF5B22" />
    </linearGradient>
    <linearGradient id="cloudGradient" x1="0%" y1="0%" x2="100%" y2="100%">
      <stop offset="0%" stop-color="#FFFFFF" />
      <stop offset="100%" stop-color="#C7D3DF" />
    </linearGradient>
    <linearGradient id="bgGradient" x1="0%" y1="0%" x2="100%" y2="100%">
      <stop offset="0%" stop-color="#4158D0" />
      <stop offset="46%" stop-color="#48A7F5" />
      <stop offset="100%" stop-color="#38FFDD" />
    </linearGradient>
    <filter id="glow" x="-30%" y="-30%" width="160%" height="160%">
      <feGaussianBlur stdDeviation="4" result="blur" />
      <feFlood flood-color="#FF9500" flood-opacity="0.3" result="color" />
      <feComposite operator="in" in="color" in2="blur" result="glow" />
      <feMerge>
        <feMergeNode in="glow" />
        <feMergeNode in="SourceGraphic" />
      </feMerge>
    </filter>
    <filter id="shadow" x="-20%" y="-20%" width="140%" height="140%">
      <feDropShadow dx="3" dy="3" stdDeviation="4" flood-color="#00000066" />
    </filter>
  </defs>
  
  <!-- Background Circle -->
  <circle cx="100" cy="100" r="90" fill="url(#bgGradient)" opacity="0.8" />
  
  <!-- Sun -->
  <circle cx="75" cy="85" r="35" fill="url(#sunGradient)" filter="url(#glow)" />
  
  <!-- Cloud -->
  <path d="M160 100c0-14-10.5-25.5-24-27-2-14-14-25-29-25-12 0-22 7-26 17-14-3-28 8-28 22 0 13 10.5 23 23 23h61c12.7 0 23-10.3 23-23v0c0 0 0 9 0-7z" 
        fill="url(#cloudGradient)" 
        stroke="none" 
        filter="url(#shadow)" />
  
  <!-- Raindrops -->
  <g fill="#38FFDD" opacity="0.7">
    <path d="M80 135c0 3.3-2.7 6-6 6s-6-2.7-6-6 6-12 6-12 6 8.7 6 12z" />
    <path d="M105 140c0 3.3-2.7 6-6 6s-6-2.7-6-6 6-12 6-12 6 8.7 6 12z" />
    <path d="M130 135c0 3.3-2.7 6-6 6s-6-2.7-6-6 6-12 6-12 6 8.7 6 12z" />
  </g>
</svg>